<svg width="28" height="28" viewBox="0 0 28 28" fill="none" xmlns="http://www.w3.org/2000/svg">
<path d="M16.3333 11.1253V8.16667C16.3333 6.92899 16.825 5.742 17.7002 4.86683C18.5753 3.99167 19.7623 3.5 21 3.5H22.75C22.9047 3.5 23.0531 3.56146 23.1625 3.67085C23.2719 3.78025 23.3333 3.92862 23.3333 4.08333V5.83333C23.3333 7.07101 22.8417 8.258 21.9665 9.13317C21.0913 10.0083 19.9043 10.5 18.6667 10.5C17.429 10.5 16.242 10.9917 15.3668 11.8668C14.4917 12.742 14 13.929 14 15.1667M14 15.1667C14 17.5 15.1667 18.6667 15.1667 21C15.1667 22.2622 14.7573 23.4903 14 24.5M14 15.1667C14 14.0833 13.6983 13.0214 13.1288 12.0999C12.5593 11.1784 11.7444 10.4337 10.7754 9.94917C9.80646 9.4647 8.72174 9.25962 7.6428 9.3569C6.56386 9.45419 5.53332 9.85001 4.66666 10.5C4.66666 11.5833 4.96833 12.6452 5.53787 13.5668C6.1074 14.4883 6.9223 15.233 7.89125 15.7175C8.8602 16.202 9.94492 16.4071 11.0239 16.3098C12.1028 16.2125 13.1333 15.8167 14 15.1667ZM5.83333 24.5H22.1667" stroke="#BB4D00" stroke-width="2" stroke-linecap="round" stroke-linejoin="round"/>
</svg>
