<svg width="28" height="28" viewBox="0 0 28 28" fill="none" xmlns="http://www.w3.org/2000/svg">
<path d="M13.9977 2.33337L14.1353 2.34154L14.2042 2.35087L14.2753 2.36604L14.4048 2.40571C14.4942 2.43876 14.5793 2.48264 14.658 2.53637L14.7793 2.63204L15.0768 2.88637C17.4304 4.8412 20.4048 5.89089 23.464 5.84621L23.863 5.83454C24.1239 5.82264 24.3812 5.8986 24.5937 6.05026C24.8063 6.20192 24.9619 6.42051 25.0355 6.67104C25.6088 8.62121 25.7842 10.6667 25.5514 12.686C25.3185 14.7054 24.6821 16.6573 23.68 18.4258C22.6779 20.1943 21.3305 21.7433 19.7179 22.9808C18.1053 24.2183 16.2604 25.119 14.2928 25.6294C14.1008 25.6792 13.8992 25.6792 13.7072 25.6294C11.7395 25.1191 9.89447 24.2185 8.28174 22.9811C6.66902 21.7436 5.3215 20.1946 4.31927 18.4261C3.31703 16.6576 2.68054 14.7056 2.44761 12.6863C2.21467 10.6669 2.39006 8.62129 2.96334 6.67104C3.03697 6.42051 3.19252 6.20192 3.40509 6.05026C3.61767 5.8986 3.87498 5.82264 4.13584 5.83454C7.32954 5.98053 10.4627 4.9292 12.922 2.88637L13.2288 2.62387L13.3408 2.53637C13.4196 2.48264 13.5046 2.43876 13.594 2.40571L13.7247 2.36604C13.7704 2.35508 13.8168 2.3469 13.8635 2.34154L13.9977 2.33337ZM18.326 10.8419C18.2177 10.7334 18.089 10.6473 17.9473 10.5886C17.8057 10.5299 17.6539 10.4997 17.5006 10.4997C17.3473 10.4997 17.1955 10.5299 17.0538 10.5886C16.9122 10.6473 16.7835 10.7334 16.6752 10.8419L12.8333 14.6825L11.3248 13.1752L11.2152 13.0784C10.9807 12.8971 10.686 12.8118 10.3909 12.8399C10.0958 12.868 9.8225 13.0074 9.62646 13.2297C9.43042 13.452 9.32636 13.7407 9.3354 14.0369C9.34445 14.3332 9.46593 14.6149 9.67517 14.8249L12.0085 17.1582L12.1182 17.255C12.3426 17.4292 12.6229 17.5154 12.9065 17.4976C13.19 17.4797 13.4573 17.3591 13.6582 17.1582L18.3248 12.4915L18.4217 12.3819C18.5958 12.1574 18.682 11.8771 18.6642 11.5936C18.6464 11.31 18.5257 11.0428 18.3248 10.8419H18.326Z" fill="#BB4D00"/>
</svg>
